<mxfile host="app.diagrams.net" agent="Mozilla/5.0 (Windows NT 10.0; Win64; x64) AppleWebKit/537.36 (KHTML, like Gecko) Chrome/131.0.0.0 Safari/537.36" version="25.0.0">
  <diagram name="Page-1" id="PPRP85h4a12Q3hMwQii0">
    <mxGraphModel dx="1059" dy="869" grid="1" gridSize="10" guides="1" tooltips="1" connect="1" arrows="1" fold="1" page="0" pageScale="1" pageWidth="850" pageHeight="1100" background="#ffffff" math="0" shadow="0">
      <root>
        <mxCell id="0" />
        <mxCell id="1" parent="0" />
        <mxCell id="oX62N9djzJdqACMinjr8-14" value="" style="edgeStyle=orthogonalEdgeStyle;rounded=0;orthogonalLoop=1;jettySize=auto;html=1;" edge="1" parent="1" source="oX62N9djzJdqACMinjr8-2" target="oX62N9djzJdqACMinjr8-11">
          <mxGeometry relative="1" as="geometry" />
        </mxCell>
        <mxCell id="oX62N9djzJdqACMinjr8-24" value="" style="edgeStyle=orthogonalEdgeStyle;rounded=0;orthogonalLoop=1;jettySize=auto;html=1;" edge="1" parent="1" target="oX62N9djzJdqACMinjr8-21">
          <mxGeometry relative="1" as="geometry">
            <mxPoint x="520" y="200" as="sourcePoint" />
          </mxGeometry>
        </mxCell>
        <mxCell id="oX62N9djzJdqACMinjr8-2" value="USER INPUT" style="swimlane;whiteSpace=wrap;html=1;" vertex="1" parent="1">
          <mxGeometry x="50" y="150" width="260" height="150" as="geometry">
            <mxRectangle x="110" y="130" width="110" height="30" as="alternateBounds" />
          </mxGeometry>
        </mxCell>
        <mxCell id="oX62N9djzJdqACMinjr8-7" value="&lt;font style=&quot;font-size: 14px;&quot;&gt;&lt;b&gt;CYCLE LENGTH&lt;/b&gt;&lt;/font&gt;" style="text;strokeColor=none;align=center;fillColor=none;html=1;verticalAlign=middle;whiteSpace=wrap;rounded=0;" vertex="1" parent="oX62N9djzJdqACMinjr8-2">
          <mxGeometry x="10" y="90" width="240" height="50" as="geometry" />
        </mxCell>
        <mxCell id="oX62N9djzJdqACMinjr8-6" value="&lt;b&gt;&lt;font style=&quot;font-size: 14px;&quot;&gt;LAST PERIOD&lt;/font&gt;&lt;/b&gt;" style="text;strokeColor=none;align=center;fillColor=none;html=1;verticalAlign=middle;whiteSpace=wrap;rounded=0;" vertex="1" parent="oX62N9djzJdqACMinjr8-2">
          <mxGeometry x="5" y="30" width="250" height="60" as="geometry" />
        </mxCell>
        <mxCell id="oX62N9djzJdqACMinjr8-11" value="MESTURAL CYCLE CALCULATOR" style="swimlane;whiteSpace=wrap;html=1;startSize=30;" vertex="1" parent="1">
          <mxGeometry x="520" y="130" width="280" height="160" as="geometry">
            <mxRectangle x="425" y="120" width="110" height="30" as="alternateBounds" />
          </mxGeometry>
        </mxCell>
        <mxCell id="oX62N9djzJdqACMinjr8-12" value="&lt;span style=&quot;font-size: 14px;&quot;&gt;&lt;b&gt;CALCULATE OVULATION DATE&lt;/b&gt;&lt;/span&gt;" style="text;strokeColor=none;align=center;fillColor=none;html=1;verticalAlign=middle;whiteSpace=wrap;rounded=0;" vertex="1" parent="oX62N9djzJdqACMinjr8-11">
          <mxGeometry y="70" width="270" height="40" as="geometry" />
        </mxCell>
        <mxCell id="oX62N9djzJdqACMinjr8-15" value="&lt;span style=&quot;font-size: 14px;&quot;&gt;&lt;b&gt;CALCULATE SAFE PERIOD&lt;/b&gt;&lt;/span&gt;" style="text;strokeColor=none;align=center;fillColor=none;html=1;verticalAlign=middle;whiteSpace=wrap;rounded=0;" vertex="1" parent="oX62N9djzJdqACMinjr8-11">
          <mxGeometry x="5" y="110" width="265" height="40" as="geometry" />
        </mxCell>
        <mxCell id="oX62N9djzJdqACMinjr8-19" value="&lt;span style=&quot;font-size: 14px;&quot;&gt;&lt;b&gt;CALCULATE FLOW DATE&lt;/b&gt;&lt;/span&gt;" style="text;strokeColor=none;align=center;fillColor=none;html=1;verticalAlign=middle;whiteSpace=wrap;rounded=0;" vertex="1" parent="oX62N9djzJdqACMinjr8-11">
          <mxGeometry x="10" y="30" width="270" height="40" as="geometry" />
        </mxCell>
        <mxCell id="oX62N9djzJdqACMinjr8-21" value="NEXT MESTURAL PERIOD" style="swimlane;whiteSpace=wrap;html=1;" vertex="1" parent="1">
          <mxGeometry x="200" y="-130" width="260" height="110" as="geometry">
            <mxRectangle x="110" y="130" width="110" height="30" as="alternateBounds" />
          </mxGeometry>
        </mxCell>
        <mxCell id="oX62N9djzJdqACMinjr8-23" value="&lt;b&gt;&lt;font style=&quot;font-size: 14px;&quot;&gt;LAST PERIOD + CYCLE LENGTH&lt;/font&gt;&lt;/b&gt;" style="text;strokeColor=none;align=center;fillColor=none;html=1;verticalAlign=middle;whiteSpace=wrap;rounded=0;" vertex="1" parent="oX62N9djzJdqACMinjr8-21">
          <mxGeometry x="5" y="30" width="250" height="70" as="geometry" />
        </mxCell>
        <mxCell id="oX62N9djzJdqACMinjr8-48" style="edgeStyle=orthogonalEdgeStyle;rounded=0;orthogonalLoop=1;jettySize=auto;html=1;exitX=0.5;exitY=1;exitDx=0;exitDy=0;entryX=0.5;entryY=1;entryDx=0;entryDy=0;" edge="1" parent="1" source="oX62N9djzJdqACMinjr8-30" target="oX62N9djzJdqACMinjr8-46">
          <mxGeometry relative="1" as="geometry" />
        </mxCell>
        <mxCell id="oX62N9djzJdqACMinjr8-30" value="&lt;b&gt;&lt;font style=&quot;font-size: 18px;&quot;&gt;NEXT PERIOD - 14&lt;/font&gt;&lt;/b&gt;" style="whiteSpace=wrap;html=1;" vertex="1" parent="1">
          <mxGeometry x="240" y="350" width="190" height="60" as="geometry" />
        </mxCell>
        <mxCell id="oX62N9djzJdqACMinjr8-31" value="" style="edgeStyle=orthogonalEdgeStyle;rounded=0;orthogonalLoop=1;jettySize=auto;html=1;" edge="1" parent="1" source="oX62N9djzJdqACMinjr8-12" target="oX62N9djzJdqACMinjr8-30">
          <mxGeometry relative="1" as="geometry" />
        </mxCell>
        <mxCell id="oX62N9djzJdqACMinjr8-45" style="edgeStyle=orthogonalEdgeStyle;rounded=0;orthogonalLoop=1;jettySize=auto;html=1;exitX=0.5;exitY=1;exitDx=0;exitDy=0;" edge="1" parent="1" source="oX62N9djzJdqACMinjr8-34">
          <mxGeometry relative="1" as="geometry">
            <mxPoint x="580" y="670.6666259765625" as="targetPoint" />
          </mxGeometry>
        </mxCell>
        <mxCell id="oX62N9djzJdqACMinjr8-56" value="" style="edgeStyle=orthogonalEdgeStyle;rounded=0;orthogonalLoop=1;jettySize=auto;html=1;" edge="1" parent="1" source="oX62N9djzJdqACMinjr8-34" target="oX62N9djzJdqACMinjr8-53">
          <mxGeometry relative="1" as="geometry">
            <Array as="points">
              <mxPoint x="660" y="690" />
              <mxPoint x="700" y="690" />
            </Array>
          </mxGeometry>
        </mxCell>
        <mxCell id="oX62N9djzJdqACMinjr8-34" value="&lt;font style=&quot;font-size: 18px;&quot;&gt;SAFE PERIOD&lt;/font&gt;" style="swimlane;whiteSpace=wrap;html=1;" vertex="1" parent="1">
          <mxGeometry x="520" y="390" width="280" height="120" as="geometry">
            <mxRectangle x="425" y="120" width="110" height="30" as="alternateBounds" />
          </mxGeometry>
        </mxCell>
        <mxCell id="oX62N9djzJdqACMinjr8-35" value="&lt;b style=&quot;&quot;&gt;&lt;font style=&quot;font-size: 18px;&quot;&gt;FERTILE ENDS&lt;/font&gt;&lt;/b&gt;" style="text;strokeColor=none;align=center;fillColor=none;html=1;verticalAlign=middle;whiteSpace=wrap;rounded=0;" vertex="1" parent="oX62N9djzJdqACMinjr8-34">
          <mxGeometry y="70" width="270" height="40" as="geometry" />
        </mxCell>
        <mxCell id="oX62N9djzJdqACMinjr8-37" value="&lt;b style=&quot;&quot;&gt;&lt;font style=&quot;font-size: 18px;&quot;&gt;FERTILE START&amp;nbsp;&lt;/font&gt;&lt;/b&gt;" style="text;strokeColor=none;align=center;fillColor=none;html=1;verticalAlign=middle;whiteSpace=wrap;rounded=0;" vertex="1" parent="oX62N9djzJdqACMinjr8-34">
          <mxGeometry x="10" y="30" width="270" height="40" as="geometry" />
        </mxCell>
        <mxCell id="oX62N9djzJdqACMinjr8-41" style="edgeStyle=orthogonalEdgeStyle;rounded=0;orthogonalLoop=1;jettySize=auto;html=1;exitX=0.5;exitY=1;exitDx=0;exitDy=0;entryX=0.395;entryY=0.004;entryDx=0;entryDy=0;entryPerimeter=0;" edge="1" parent="1" source="oX62N9djzJdqACMinjr8-15" target="oX62N9djzJdqACMinjr8-34">
          <mxGeometry relative="1" as="geometry" />
        </mxCell>
        <mxCell id="oX62N9djzJdqACMinjr8-43" value="&lt;span style=&quot;font-size: 18px;&quot;&gt;&lt;b&gt;OVULATION DATE - 5&lt;/b&gt;&lt;/span&gt;" style="whiteSpace=wrap;html=1;" vertex="1" parent="1">
          <mxGeometry x="120" y="610" width="190" height="70" as="geometry" />
        </mxCell>
        <mxCell id="oX62N9djzJdqACMinjr8-44" style="edgeStyle=orthogonalEdgeStyle;rounded=0;orthogonalLoop=1;jettySize=auto;html=1;exitX=0.5;exitY=1;exitDx=0;exitDy=0;entryX=0.137;entryY=0.078;entryDx=0;entryDy=0;entryPerimeter=0;" edge="1" parent="1" source="oX62N9djzJdqACMinjr8-30" target="oX62N9djzJdqACMinjr8-43">
          <mxGeometry relative="1" as="geometry" />
        </mxCell>
        <mxCell id="oX62N9djzJdqACMinjr8-46" value="&lt;span style=&quot;font-size: 18px;&quot;&gt;&lt;b&gt;OVULATION DATE + 1&lt;/b&gt;&lt;/span&gt;" style="whiteSpace=wrap;html=1;" vertex="1" parent="1">
          <mxGeometry x="430" y="660" width="190" height="60" as="geometry" />
        </mxCell>
        <mxCell id="oX62N9djzJdqACMinjr8-42" style="edgeStyle=orthogonalEdgeStyle;rounded=0;orthogonalLoop=1;jettySize=auto;html=1;exitX=0;exitY=0.5;exitDx=0;exitDy=0;entryX=0.5;entryY=1;entryDx=0;entryDy=0;" edge="1" parent="1" source="oX62N9djzJdqACMinjr8-37" target="oX62N9djzJdqACMinjr8-43">
          <mxGeometry relative="1" as="geometry">
            <mxPoint x="350" y="572" as="targetPoint" />
          </mxGeometry>
        </mxCell>
        <mxCell id="oX62N9djzJdqACMinjr8-53" value="&#xa;&lt;span style=&quot;color: rgb(0, 0, 0); font-family: Helvetica; font-size: 18px; font-style: normal; font-variant-ligatures: normal; font-variant-caps: normal; font-weight: 700; letter-spacing: normal; orphans: 2; text-align: center; text-indent: 0px; text-transform: none; widows: 2; word-spacing: 0px; -webkit-text-stroke-width: 0px; white-space: normal; background-color: rgb(251, 251, 251); text-decoration-thickness: initial; text-decoration-style: initial; text-decoration-color: initial; display: inline !important; float: none;&quot;&gt;SAFE PERIOD BEFORE FERTILE&amp;nbsp; START&lt;/span&gt;&#xa;&#xa;" style="swimlane;whiteSpace=wrap;html=1;startSize=60;" vertex="1" parent="1">
          <mxGeometry x="560" y="872" width="280" height="180" as="geometry">
            <mxRectangle x="425" y="120" width="110" height="30" as="alternateBounds" />
          </mxGeometry>
        </mxCell>
        <mxCell id="oX62N9djzJdqACMinjr8-65" value="&lt;table&gt;&lt;tbody&gt;&lt;tr&gt;&lt;td&gt;&lt;br&gt;&lt;/td&gt;&lt;td&gt;&lt;br&gt;&lt;/td&gt;&lt;/tr&gt;&lt;tr&gt;&lt;td&gt;&lt;br&gt;&lt;/td&gt;&lt;td&gt;&lt;br&gt;&lt;/td&gt;&lt;/tr&gt;&lt;/tbody&gt;&lt;/table&gt;" style="text;strokeColor=none;align=center;fillColor=none;html=1;verticalAlign=middle;whiteSpace=wrap;rounded=0;" vertex="1" parent="oX62N9djzJdqACMinjr8-53">
          <mxGeometry x="10" y="98" width="270" height="40" as="geometry" />
        </mxCell>
        <mxCell id="oX62N9djzJdqACMinjr8-66" value="" style="shape=table;startSize=0;container=1;collapsible=0;childLayout=tableLayout;" vertex="1" parent="oX62N9djzJdqACMinjr8-53">
          <mxGeometry x="10" y="68" width="260" height="112" as="geometry" />
        </mxCell>
        <mxCell id="oX62N9djzJdqACMinjr8-67" value="" style="shape=tableRow;horizontal=0;startSize=0;swimlaneHead=0;swimlaneBody=0;strokeColor=inherit;top=0;left=0;bottom=0;right=0;collapsible=0;dropTarget=0;fillColor=none;points=[[0,0.5],[1,0.5]];portConstraint=eastwest;" vertex="1" parent="oX62N9djzJdqACMinjr8-66">
          <mxGeometry width="260" height="56" as="geometry" />
        </mxCell>
        <mxCell id="oX62N9djzJdqACMinjr8-68" value="&lt;font style=&quot;font-size: 14px;&quot;&gt;&lt;b&gt;FROM&lt;/b&gt;&lt;/font&gt;" style="shape=partialRectangle;html=1;whiteSpace=wrap;connectable=0;strokeColor=inherit;overflow=hidden;fillColor=none;top=0;left=0;bottom=0;right=0;pointerEvents=1;" vertex="1" parent="oX62N9djzJdqACMinjr8-67">
          <mxGeometry width="130" height="56" as="geometry">
            <mxRectangle width="130" height="56" as="alternateBounds" />
          </mxGeometry>
        </mxCell>
        <mxCell id="oX62N9djzJdqACMinjr8-69" value="&lt;font style=&quot;font-size: 14px;&quot;&gt;&lt;b&gt;TO&lt;/b&gt;&lt;/font&gt;" style="shape=partialRectangle;html=1;whiteSpace=wrap;connectable=0;strokeColor=inherit;overflow=hidden;fillColor=none;top=0;left=0;bottom=0;right=0;pointerEvents=1;" vertex="1" parent="oX62N9djzJdqACMinjr8-67">
          <mxGeometry x="130" width="130" height="56" as="geometry">
            <mxRectangle width="130" height="56" as="alternateBounds" />
          </mxGeometry>
        </mxCell>
        <mxCell id="oX62N9djzJdqACMinjr8-70" value="" style="shape=tableRow;horizontal=0;startSize=0;swimlaneHead=0;swimlaneBody=0;strokeColor=inherit;top=0;left=0;bottom=0;right=0;collapsible=0;dropTarget=0;fillColor=none;points=[[0,0.5],[1,0.5]];portConstraint=eastwest;" vertex="1" parent="oX62N9djzJdqACMinjr8-66">
          <mxGeometry y="56" width="260" height="56" as="geometry" />
        </mxCell>
        <mxCell id="oX62N9djzJdqACMinjr8-71" value="&lt;b&gt;&lt;font style=&quot;font-size: 14px;&quot;&gt;LAST PERIOD + CYCLE LENGTH&lt;/font&gt;&lt;/b&gt;" style="shape=partialRectangle;html=1;whiteSpace=wrap;connectable=0;strokeColor=inherit;overflow=hidden;fillColor=none;top=0;left=0;bottom=0;right=0;pointerEvents=1;" vertex="1" parent="oX62N9djzJdqACMinjr8-70">
          <mxGeometry width="130" height="56" as="geometry">
            <mxRectangle width="130" height="56" as="alternateBounds" />
          </mxGeometry>
        </mxCell>
        <mxCell id="oX62N9djzJdqACMinjr8-72" value="&lt;span style=&quot;font-size: 14px;&quot;&gt;&lt;b&gt;FERTILESTART - 1&lt;/b&gt;&lt;/span&gt;" style="shape=partialRectangle;html=1;whiteSpace=wrap;connectable=0;strokeColor=inherit;overflow=hidden;fillColor=none;top=0;left=0;bottom=0;right=0;pointerEvents=1;" vertex="1" parent="oX62N9djzJdqACMinjr8-70">
          <mxGeometry x="130" width="130" height="56" as="geometry">
            <mxRectangle width="130" height="56" as="alternateBounds" />
          </mxGeometry>
        </mxCell>
        <mxCell id="oX62N9djzJdqACMinjr8-61" style="edgeStyle=orthogonalEdgeStyle;rounded=0;orthogonalLoop=1;jettySize=auto;html=1;exitX=0.5;exitY=0;exitDx=0;exitDy=0;" edge="1" parent="1" source="oX62N9djzJdqACMinjr8-57">
          <mxGeometry relative="1" as="geometry">
            <mxPoint x="699.9999999999998" y="810" as="targetPoint" />
          </mxGeometry>
        </mxCell>
        <mxCell id="oX62N9djzJdqACMinjr8-57" value="&lt;span style=&quot;font-size: 18px;&quot;&gt;SAFE PERIOD AFTER FERTILE&amp;nbsp; END&lt;/span&gt;" style="swimlane;whiteSpace=wrap;html=1;startSize=50;" vertex="1" parent="1">
          <mxGeometry x="170" y="880" width="300" height="172" as="geometry">
            <mxRectangle x="425" y="120" width="110" height="30" as="alternateBounds" />
          </mxGeometry>
        </mxCell>
        <mxCell id="oX62N9djzJdqACMinjr8-73" value="" style="shape=table;startSize=0;container=1;collapsible=0;childLayout=tableLayout;" vertex="1" parent="oX62N9djzJdqACMinjr8-57">
          <mxGeometry x="25" y="60" width="260" height="112" as="geometry" />
        </mxCell>
        <mxCell id="oX62N9djzJdqACMinjr8-74" value="" style="shape=tableRow;horizontal=0;startSize=0;swimlaneHead=0;swimlaneBody=0;strokeColor=inherit;top=0;left=0;bottom=0;right=0;collapsible=0;dropTarget=0;fillColor=none;points=[[0,0.5],[1,0.5]];portConstraint=eastwest;" vertex="1" parent="oX62N9djzJdqACMinjr8-73">
          <mxGeometry width="260" height="56" as="geometry" />
        </mxCell>
        <mxCell id="oX62N9djzJdqACMinjr8-75" value="&lt;font style=&quot;font-size: 14px;&quot;&gt;&lt;b&gt;FROM&lt;/b&gt;&lt;/font&gt;" style="shape=partialRectangle;html=1;whiteSpace=wrap;connectable=0;strokeColor=inherit;overflow=hidden;fillColor=none;top=0;left=0;bottom=0;right=0;pointerEvents=1;" vertex="1" parent="oX62N9djzJdqACMinjr8-74">
          <mxGeometry width="130" height="56" as="geometry">
            <mxRectangle width="130" height="56" as="alternateBounds" />
          </mxGeometry>
        </mxCell>
        <mxCell id="oX62N9djzJdqACMinjr8-76" value="&lt;font style=&quot;font-size: 14px;&quot;&gt;&lt;b&gt;TO&lt;/b&gt;&lt;/font&gt;" style="shape=partialRectangle;html=1;whiteSpace=wrap;connectable=0;strokeColor=inherit;overflow=hidden;fillColor=none;top=0;left=0;bottom=0;right=0;pointerEvents=1;" vertex="1" parent="oX62N9djzJdqACMinjr8-74">
          <mxGeometry x="130" width="130" height="56" as="geometry">
            <mxRectangle width="130" height="56" as="alternateBounds" />
          </mxGeometry>
        </mxCell>
        <mxCell id="oX62N9djzJdqACMinjr8-77" value="" style="shape=tableRow;horizontal=0;startSize=0;swimlaneHead=0;swimlaneBody=0;strokeColor=inherit;top=0;left=0;bottom=0;right=0;collapsible=0;dropTarget=0;fillColor=none;points=[[0,0.5],[1,0.5]];portConstraint=eastwest;" vertex="1" parent="oX62N9djzJdqACMinjr8-73">
          <mxGeometry y="56" width="260" height="56" as="geometry" />
        </mxCell>
        <mxCell id="oX62N9djzJdqACMinjr8-78" value="&lt;span style=&quot;font-size: 14px;&quot;&gt;&lt;b&gt;FERTILE END + 1&amp;nbsp;&lt;/b&gt;&lt;/span&gt;" style="shape=partialRectangle;html=1;whiteSpace=wrap;connectable=0;strokeColor=inherit;overflow=hidden;fillColor=none;top=0;left=0;bottom=0;right=0;pointerEvents=1;" vertex="1" parent="oX62N9djzJdqACMinjr8-77">
          <mxGeometry width="130" height="56" as="geometry">
            <mxRectangle width="130" height="56" as="alternateBounds" />
          </mxGeometry>
        </mxCell>
        <mxCell id="oX62N9djzJdqACMinjr8-79" value="&lt;span style=&quot;font-size: 14px;&quot;&gt;&lt;b&gt;NEXTPERIOD START - 1&lt;/b&gt;&lt;/span&gt;" style="shape=partialRectangle;html=1;whiteSpace=wrap;connectable=0;strokeColor=inherit;overflow=hidden;fillColor=none;top=0;left=0;bottom=0;right=0;pointerEvents=1;" vertex="1" parent="oX62N9djzJdqACMinjr8-77">
          <mxGeometry x="130" width="130" height="56" as="geometry">
            <mxRectangle width="130" height="56" as="alternateBounds" />
          </mxGeometry>
        </mxCell>
      </root>
    </mxGraphModel>
  </diagram>
</mxfile>
